<svg id="Capa_1" enable-background="new 0 0 512 512" height="512" viewBox="0 0 512 512" width="512" xmlns="http://www.w3.org/2000/svg"><g><path d="m121 0c-66.275 0-121 54.725-121 121s54.725 120 121 120 120-53.725 120-120-53.725-121-120-121z" fill="#6be62e"/><path d="m121 241c66.275 0 120-53.725 120-120s-53.725-121-120-121z" fill="#44cc29"/><path d="m166 69.789-45 45-15 15-30-30-21.211 21.211 51.211 51.211 15-15 66.211-66.211z" fill="#edf5ff"/><path d="m166 69.789-45 45v42.422l66.211-66.211z" fill="#d5e8fe"/><path d="m512 121c0-66.167-54.833-121-121-121s-120 54.833-120 121 53.833 120 120 120 121-53.833 121-120z" fill="#ff8080"/><path d="m512 121c0-66.167-54.833-121-121-121v241c66.167 0 121-53.833 121-120z" fill="#ff4d4d"/><path d="m412.211 121 30-30-21.211-21.211-30 30-30-30-21.211 21.211 30 30-30 30 21.211 21.211 30-30 30 30 21.211-21.211z" fill="#edf5ff"/><path d="m442.211 151-30-30 30-30-21.211-21.211-30 30v42.422l30 30z" fill="#d5e8fe"/><path d="m331 346c0-24.814-20.186-45-45-45h-45v-120c0-16.569-13.431-30-30-30s-30 13.431-30 30v120l-15 45-15-45h-9.082c-28.081 0-50.918 22.837-50.918 50.918 0 38.35 11.25 75.483 32.52 107.402 1.555 2.378-8.494-12.987 34.453 52.68h53.027 84.261c1.63-4.419 35.739-60.478 35.739-143.09z" fill="#ffe1ba"/><g fill="#ffbfab"><path d="m331 368.91v-22.91c0-24.814-20.186-45-45-45h-45v-120c0-16.569-13.431-30-30-30v361h84.261c1.63-4.419 35.739-60.478 35.739-143.09z"/><path d="m151 301h30v75h-30z"/></g></g></svg>